<mxfile host="app.diagrams.net" agent="Mozilla/5.0 (Windows NT 10.0; Win64; x64) AppleWebKit/537.36 (KHTML, like Gecko) Chrome/126.0.0.0 YaBrowser/24.7.0.0 Safari/537.36" version="24.7.17">
  <diagram name="Страница — 1" id="WcrpIAUgGka8IPAis3td">
    <mxGraphModel dx="4159" dy="2607" grid="1" gridSize="10" guides="1" tooltips="1" connect="1" arrows="1" fold="1" page="1" pageScale="1" pageWidth="827" pageHeight="1169" math="0" shadow="0">
      <root>
        <mxCell id="0" />
        <mxCell id="1" parent="0" />
        <mxCell id="aRhJgVoBjpyDwVt26xti-1" value="Пользователь" style="shape=umlActor;verticalLabelPosition=bottom;verticalAlign=top;html=1;" vertex="1" parent="1">
          <mxGeometry x="140" y="270" width="30" height="60" as="geometry" />
        </mxCell>
        <mxCell id="aRhJgVoBjpyDwVt26xti-2" value="Посмотреть список питомцев" style="ellipse;whiteSpace=wrap;html=1;" vertex="1" parent="1">
          <mxGeometry x="274" y="265" width="140" height="70" as="geometry" />
        </mxCell>
        <mxCell id="aRhJgVoBjpyDwVt26xti-3" value="Выбрать питомца" style="ellipse;whiteSpace=wrap;html=1;" vertex="1" parent="1">
          <mxGeometry x="520" y="170" width="140" height="70" as="geometry" />
        </mxCell>
        <mxCell id="aRhJgVoBjpyDwVt26xti-4" value="" style="endArrow=none;html=1;rounded=0;exitX=0.5;exitY=0.5;exitDx=0;exitDy=0;exitPerimeter=0;entryX=0;entryY=0.5;entryDx=0;entryDy=0;" edge="1" parent="1" source="aRhJgVoBjpyDwVt26xti-1" target="aRhJgVoBjpyDwVt26xti-2">
          <mxGeometry width="50" height="50" relative="1" as="geometry">
            <mxPoint x="200" y="170" as="sourcePoint" />
            <mxPoint x="250" y="120" as="targetPoint" />
          </mxGeometry>
        </mxCell>
        <mxCell id="aRhJgVoBjpyDwVt26xti-5" value="" style="endArrow=open;dashed=1;html=1;dashPattern=1 3;strokeWidth=2;rounded=0;entryX=0.956;entryY=0.396;entryDx=0;entryDy=0;entryPerimeter=0;exitX=0;exitY=0.5;exitDx=0;exitDy=0;endFill=0;" edge="1" parent="1" source="aRhJgVoBjpyDwVt26xti-3" target="aRhJgVoBjpyDwVt26xti-2">
          <mxGeometry width="50" height="50" relative="1" as="geometry">
            <mxPoint x="470" y="340" as="sourcePoint" />
            <mxPoint x="520" y="290" as="targetPoint" />
          </mxGeometry>
        </mxCell>
        <mxCell id="aRhJgVoBjpyDwVt26xti-6" value="extend" style="edgeLabel;html=1;align=center;verticalAlign=middle;resizable=0;points=[];" vertex="1" connectable="0" parent="aRhJgVoBjpyDwVt26xti-5">
          <mxGeometry x="-0.2748" y="-1" relative="1" as="geometry">
            <mxPoint as="offset" />
          </mxGeometry>
        </mxCell>
        <mxCell id="aRhJgVoBjpyDwVt26xti-7" value="Посмотреть информацию о питомце" style="ellipse;whiteSpace=wrap;html=1;" vertex="1" parent="1">
          <mxGeometry x="540" y="-20" width="140" height="70" as="geometry" />
        </mxCell>
        <mxCell id="aRhJgVoBjpyDwVt26xti-8" value="Удалить питомца" style="ellipse;whiteSpace=wrap;html=1;" vertex="1" parent="1">
          <mxGeometry x="740" y="50" width="140" height="70" as="geometry" />
        </mxCell>
        <mxCell id="aRhJgVoBjpyDwVt26xti-9" value="Отредактировать информацию о питомце" style="ellipse;whiteSpace=wrap;html=1;" vertex="1" parent="1">
          <mxGeometry x="770" y="210" width="140" height="70" as="geometry" />
        </mxCell>
        <mxCell id="aRhJgVoBjpyDwVt26xti-10" value="" style="endArrow=open;dashed=1;html=1;dashPattern=1 3;strokeWidth=2;rounded=0;entryX=0.5;entryY=0;entryDx=0;entryDy=0;exitX=0.5;exitY=1;exitDx=0;exitDy=0;endFill=0;" edge="1" parent="1" source="aRhJgVoBjpyDwVt26xti-7" target="aRhJgVoBjpyDwVt26xti-3">
          <mxGeometry width="50" height="50" relative="1" as="geometry">
            <mxPoint x="530" y="215" as="sourcePoint" />
            <mxPoint x="418" y="303" as="targetPoint" />
          </mxGeometry>
        </mxCell>
        <mxCell id="aRhJgVoBjpyDwVt26xti-11" value="extend" style="edgeLabel;html=1;align=center;verticalAlign=middle;resizable=0;points=[];" vertex="1" connectable="0" parent="aRhJgVoBjpyDwVt26xti-10">
          <mxGeometry x="-0.2748" y="-1" relative="1" as="geometry">
            <mxPoint as="offset" />
          </mxGeometry>
        </mxCell>
        <mxCell id="aRhJgVoBjpyDwVt26xti-12" value="" style="endArrow=open;dashed=1;html=1;dashPattern=1 3;strokeWidth=2;rounded=0;entryX=1;entryY=0;entryDx=0;entryDy=0;exitX=0.078;exitY=0.793;exitDx=0;exitDy=0;endFill=0;exitPerimeter=0;" edge="1" parent="1" source="aRhJgVoBjpyDwVt26xti-8" target="aRhJgVoBjpyDwVt26xti-3">
          <mxGeometry width="50" height="50" relative="1" as="geometry">
            <mxPoint x="540" y="225" as="sourcePoint" />
            <mxPoint x="428" y="313" as="targetPoint" />
          </mxGeometry>
        </mxCell>
        <mxCell id="aRhJgVoBjpyDwVt26xti-13" value="extend" style="edgeLabel;html=1;align=center;verticalAlign=middle;resizable=0;points=[];" vertex="1" connectable="0" parent="aRhJgVoBjpyDwVt26xti-12">
          <mxGeometry x="-0.2748" y="-1" relative="1" as="geometry">
            <mxPoint as="offset" />
          </mxGeometry>
        </mxCell>
        <mxCell id="aRhJgVoBjpyDwVt26xti-14" value="" style="endArrow=open;dashed=1;html=1;dashPattern=1 3;strokeWidth=2;rounded=0;entryX=1;entryY=0.5;entryDx=0;entryDy=0;exitX=0;exitY=0.5;exitDx=0;exitDy=0;endFill=0;" edge="1" parent="1" source="aRhJgVoBjpyDwVt26xti-9" target="aRhJgVoBjpyDwVt26xti-3">
          <mxGeometry width="50" height="50" relative="1" as="geometry">
            <mxPoint x="550" y="235" as="sourcePoint" />
            <mxPoint x="438" y="323" as="targetPoint" />
          </mxGeometry>
        </mxCell>
        <mxCell id="aRhJgVoBjpyDwVt26xti-15" value="extend" style="edgeLabel;html=1;align=center;verticalAlign=middle;resizable=0;points=[];" vertex="1" connectable="0" parent="aRhJgVoBjpyDwVt26xti-14">
          <mxGeometry x="-0.2748" y="-1" relative="1" as="geometry">
            <mxPoint as="offset" />
          </mxGeometry>
        </mxCell>
        <mxCell id="aRhJgVoBjpyDwVt26xti-16" value="Посмотреть список сотрудников" style="ellipse;whiteSpace=wrap;html=1;" vertex="1" parent="1">
          <mxGeometry x="90" y="480" width="140" height="70" as="geometry" />
        </mxCell>
        <mxCell id="aRhJgVoBjpyDwVt26xti-17" value="" style="endArrow=none;html=1;rounded=0;exitX=0.5;exitY=0.5;exitDx=0;exitDy=0;exitPerimeter=0;entryX=0.5;entryY=0;entryDx=0;entryDy=0;" edge="1" parent="1" source="aRhJgVoBjpyDwVt26xti-1" target="aRhJgVoBjpyDwVt26xti-16">
          <mxGeometry width="50" height="50" relative="1" as="geometry">
            <mxPoint x="165" y="310" as="sourcePoint" />
            <mxPoint x="284" y="310" as="targetPoint" />
          </mxGeometry>
        </mxCell>
        <mxCell id="aRhJgVoBjpyDwVt26xti-18" value="Изменить смотрителя/ветеринара" style="ellipse;whiteSpace=wrap;html=1;" vertex="1" parent="1">
          <mxGeometry x="890" y="390" width="140" height="70" as="geometry" />
        </mxCell>
        <mxCell id="aRhJgVoBjpyDwVt26xti-19" value="" style="endArrow=open;dashed=1;html=1;dashPattern=1 3;strokeWidth=2;rounded=0;entryX=0.774;entryY=0.935;entryDx=0;entryDy=0;exitX=0;exitY=0.5;exitDx=0;exitDy=0;endFill=0;entryPerimeter=0;" edge="1" parent="1" source="aRhJgVoBjpyDwVt26xti-18" target="aRhJgVoBjpyDwVt26xti-9">
          <mxGeometry width="50" height="50" relative="1" as="geometry">
            <mxPoint x="780" y="255" as="sourcePoint" />
            <mxPoint x="670" y="215" as="targetPoint" />
          </mxGeometry>
        </mxCell>
        <mxCell id="aRhJgVoBjpyDwVt26xti-20" value="extend" style="edgeLabel;html=1;align=center;verticalAlign=middle;resizable=0;points=[];" vertex="1" connectable="0" parent="aRhJgVoBjpyDwVt26xti-19">
          <mxGeometry x="-0.2748" y="-1" relative="1" as="geometry">
            <mxPoint as="offset" />
          </mxGeometry>
        </mxCell>
        <mxCell id="aRhJgVoBjpyDwVt26xti-21" value="Изменить зону обитания" style="ellipse;whiteSpace=wrap;html=1;" vertex="1" parent="1">
          <mxGeometry x="1010" y="250" width="140" height="70" as="geometry" />
        </mxCell>
        <mxCell id="aRhJgVoBjpyDwVt26xti-22" value="" style="endArrow=open;dashed=1;html=1;dashPattern=1 3;strokeWidth=2;rounded=0;entryX=1;entryY=1;entryDx=0;entryDy=0;exitX=0;exitY=0.5;exitDx=0;exitDy=0;endFill=0;" edge="1" parent="1" source="aRhJgVoBjpyDwVt26xti-21" target="aRhJgVoBjpyDwVt26xti-9">
          <mxGeometry width="50" height="50" relative="1" as="geometry">
            <mxPoint x="790" y="265" as="sourcePoint" />
            <mxPoint x="680" y="225" as="targetPoint" />
          </mxGeometry>
        </mxCell>
        <mxCell id="aRhJgVoBjpyDwVt26xti-23" value="extend" style="edgeLabel;html=1;align=center;verticalAlign=middle;resizable=0;points=[];" vertex="1" connectable="0" parent="aRhJgVoBjpyDwVt26xti-22">
          <mxGeometry x="-0.2748" y="-1" relative="1" as="geometry">
            <mxPoint as="offset" />
          </mxGeometry>
        </mxCell>
        <mxCell id="aRhJgVoBjpyDwVt26xti-24" value="Изменить рацион питания" style="ellipse;whiteSpace=wrap;html=1;" vertex="1" parent="1">
          <mxGeometry x="1010" y="130" width="140" height="70" as="geometry" />
        </mxCell>
        <mxCell id="aRhJgVoBjpyDwVt26xti-25" value="" style="endArrow=open;dashed=1;html=1;dashPattern=1 3;strokeWidth=2;rounded=0;entryX=1;entryY=0;entryDx=0;entryDy=0;exitX=0;exitY=0.5;exitDx=0;exitDy=0;endFill=0;" edge="1" parent="1" source="aRhJgVoBjpyDwVt26xti-24" target="aRhJgVoBjpyDwVt26xti-9">
          <mxGeometry width="50" height="50" relative="1" as="geometry">
            <mxPoint x="800" y="275" as="sourcePoint" />
            <mxPoint x="690" y="235" as="targetPoint" />
          </mxGeometry>
        </mxCell>
        <mxCell id="aRhJgVoBjpyDwVt26xti-26" value="extend" style="edgeLabel;html=1;align=center;verticalAlign=middle;resizable=0;points=[];" vertex="1" connectable="0" parent="aRhJgVoBjpyDwVt26xti-25">
          <mxGeometry x="-0.2748" y="-1" relative="1" as="geometry">
            <mxPoint as="offset" />
          </mxGeometry>
        </mxCell>
        <mxCell id="aRhJgVoBjpyDwVt26xti-27" value="Выбрать сотрудника" style="ellipse;whiteSpace=wrap;html=1;" vertex="1" parent="1">
          <mxGeometry x="80" y="670" width="140" height="70" as="geometry" />
        </mxCell>
        <mxCell id="aRhJgVoBjpyDwVt26xti-28" value="" style="endArrow=open;dashed=1;html=1;dashPattern=1 3;strokeWidth=2;rounded=0;entryX=0.5;entryY=1;entryDx=0;entryDy=0;exitX=0.5;exitY=0;exitDx=0;exitDy=0;endFill=0;" edge="1" parent="1" source="aRhJgVoBjpyDwVt26xti-27" target="aRhJgVoBjpyDwVt26xti-16">
          <mxGeometry width="50" height="50" relative="1" as="geometry">
            <mxPoint x="810" y="285" as="sourcePoint" />
            <mxPoint x="700" y="245" as="targetPoint" />
          </mxGeometry>
        </mxCell>
        <mxCell id="aRhJgVoBjpyDwVt26xti-29" value="extend" style="edgeLabel;html=1;align=center;verticalAlign=middle;resizable=0;points=[];" vertex="1" connectable="0" parent="aRhJgVoBjpyDwVt26xti-28">
          <mxGeometry x="-0.2748" y="-1" relative="1" as="geometry">
            <mxPoint as="offset" />
          </mxGeometry>
        </mxCell>
        <mxCell id="aRhJgVoBjpyDwVt26xti-30" value="Создать сущность" style="ellipse;whiteSpace=wrap;html=1;" vertex="1" parent="1">
          <mxGeometry x="85" y="80" width="140" height="70" as="geometry" />
        </mxCell>
        <mxCell id="aRhJgVoBjpyDwVt26xti-31" value="Создать питомца" style="ellipse;whiteSpace=wrap;html=1;" vertex="1" parent="1">
          <mxGeometry x="320" y="-140" width="140" height="70" as="geometry" />
        </mxCell>
        <mxCell id="aRhJgVoBjpyDwVt26xti-34" value="" style="endArrow=none;html=1;rounded=0;exitX=0.5;exitY=1;exitDx=0;exitDy=0;entryX=0.5;entryY=0.5;entryDx=0;entryDy=0;entryPerimeter=0;" edge="1" parent="1" source="aRhJgVoBjpyDwVt26xti-30" target="aRhJgVoBjpyDwVt26xti-1">
          <mxGeometry width="50" height="50" relative="1" as="geometry">
            <mxPoint x="165" y="310" as="sourcePoint" />
            <mxPoint x="284" y="310" as="targetPoint" />
          </mxGeometry>
        </mxCell>
        <mxCell id="aRhJgVoBjpyDwVt26xti-35" value="Создать работника" style="ellipse;whiteSpace=wrap;html=1;" vertex="1" parent="1">
          <mxGeometry x="70" y="-130" width="140" height="70" as="geometry" />
        </mxCell>
        <mxCell id="aRhJgVoBjpyDwVt26xti-36" value="Создать зону обитания" style="ellipse;whiteSpace=wrap;html=1;" vertex="1" parent="1">
          <mxGeometry x="-120" y="-120" width="140" height="70" as="geometry" />
        </mxCell>
        <mxCell id="aRhJgVoBjpyDwVt26xti-37" value="Создать рацион питания" style="ellipse;whiteSpace=wrap;html=1;" vertex="1" parent="1">
          <mxGeometry x="-340" y="-100" width="140" height="70" as="geometry" />
        </mxCell>
        <mxCell id="aRhJgVoBjpyDwVt26xti-39" value="" style="endArrow=block;html=1;rounded=0;entryX=0.758;entryY=0.095;entryDx=0;entryDy=0;exitX=0.5;exitY=1;exitDx=0;exitDy=0;endFill=1;entryPerimeter=0;" edge="1" parent="1" source="aRhJgVoBjpyDwVt26xti-31" target="aRhJgVoBjpyDwVt26xti-30">
          <mxGeometry width="50" height="50" relative="1" as="geometry">
            <mxPoint x="130" y="30" as="sourcePoint" />
            <mxPoint x="180" y="-20" as="targetPoint" />
          </mxGeometry>
        </mxCell>
        <mxCell id="aRhJgVoBjpyDwVt26xti-40" value="" style="endArrow=block;html=1;rounded=0;entryX=0.5;entryY=0;entryDx=0;entryDy=0;exitX=0.5;exitY=1;exitDx=0;exitDy=0;endFill=1;" edge="1" parent="1" source="aRhJgVoBjpyDwVt26xti-35" target="aRhJgVoBjpyDwVt26xti-30">
          <mxGeometry width="50" height="50" relative="1" as="geometry">
            <mxPoint x="400" y="-60" as="sourcePoint" />
            <mxPoint x="165" y="90" as="targetPoint" />
          </mxGeometry>
        </mxCell>
        <mxCell id="aRhJgVoBjpyDwVt26xti-41" value="" style="endArrow=block;html=1;rounded=0;entryX=0;entryY=0;entryDx=0;entryDy=0;exitX=0.5;exitY=1;exitDx=0;exitDy=0;endFill=1;" edge="1" parent="1" source="aRhJgVoBjpyDwVt26xti-36" target="aRhJgVoBjpyDwVt26xti-30">
          <mxGeometry width="50" height="50" relative="1" as="geometry">
            <mxPoint x="410" y="-50" as="sourcePoint" />
            <mxPoint x="175" y="100" as="targetPoint" />
          </mxGeometry>
        </mxCell>
        <mxCell id="aRhJgVoBjpyDwVt26xti-42" value="" style="endArrow=block;html=1;rounded=0;entryX=0;entryY=0.5;entryDx=0;entryDy=0;exitX=0.5;exitY=1;exitDx=0;exitDy=0;endFill=1;" edge="1" parent="1" source="aRhJgVoBjpyDwVt26xti-37" target="aRhJgVoBjpyDwVt26xti-30">
          <mxGeometry width="50" height="50" relative="1" as="geometry">
            <mxPoint x="420" y="-40" as="sourcePoint" />
            <mxPoint x="185" y="110" as="targetPoint" />
          </mxGeometry>
        </mxCell>
        <mxCell id="aRhJgVoBjpyDwVt26xti-62" value="Выбрать сотрудника" style="ellipse;whiteSpace=wrap;html=1;" vertex="1" parent="1">
          <mxGeometry x="380" y="720" width="140" height="70" as="geometry" />
        </mxCell>
        <mxCell id="aRhJgVoBjpyDwVt26xti-63" value="Посмотреть информацию о сотруднике" style="ellipse;whiteSpace=wrap;html=1;" vertex="1" parent="1">
          <mxGeometry x="400" y="570" width="140" height="70" as="geometry" />
        </mxCell>
        <mxCell id="aRhJgVoBjpyDwVt26xti-64" value="Удалить сотрудника" style="ellipse;whiteSpace=wrap;html=1;" vertex="1" parent="1">
          <mxGeometry x="600" y="600" width="140" height="70" as="geometry" />
        </mxCell>
        <mxCell id="aRhJgVoBjpyDwVt26xti-65" value="Отредактировать информацию о сотруднике" style="ellipse;whiteSpace=wrap;html=1;" vertex="1" parent="1">
          <mxGeometry x="630" y="760" width="140" height="70" as="geometry" />
        </mxCell>
        <mxCell id="aRhJgVoBjpyDwVt26xti-66" value="" style="endArrow=open;dashed=1;html=1;dashPattern=1 3;strokeWidth=2;rounded=0;entryX=0.5;entryY=0;entryDx=0;entryDy=0;exitX=0.5;exitY=1;exitDx=0;exitDy=0;endFill=0;" edge="1" parent="1" source="aRhJgVoBjpyDwVt26xti-63" target="aRhJgVoBjpyDwVt26xti-62">
          <mxGeometry width="50" height="50" relative="1" as="geometry">
            <mxPoint x="390" y="765" as="sourcePoint" />
            <mxPoint x="278" y="853" as="targetPoint" />
          </mxGeometry>
        </mxCell>
        <mxCell id="aRhJgVoBjpyDwVt26xti-67" value="extend" style="edgeLabel;html=1;align=center;verticalAlign=middle;resizable=0;points=[];" vertex="1" connectable="0" parent="aRhJgVoBjpyDwVt26xti-66">
          <mxGeometry x="-0.2748" y="-1" relative="1" as="geometry">
            <mxPoint as="offset" />
          </mxGeometry>
        </mxCell>
        <mxCell id="aRhJgVoBjpyDwVt26xti-68" value="" style="endArrow=open;dashed=1;html=1;dashPattern=1 3;strokeWidth=2;rounded=0;entryX=1;entryY=0;entryDx=0;entryDy=0;exitX=0.078;exitY=0.793;exitDx=0;exitDy=0;endFill=0;exitPerimeter=0;" edge="1" parent="1" source="aRhJgVoBjpyDwVt26xti-64" target="aRhJgVoBjpyDwVt26xti-62">
          <mxGeometry width="50" height="50" relative="1" as="geometry">
            <mxPoint x="400" y="775" as="sourcePoint" />
            <mxPoint x="288" y="863" as="targetPoint" />
          </mxGeometry>
        </mxCell>
        <mxCell id="aRhJgVoBjpyDwVt26xti-69" value="extend" style="edgeLabel;html=1;align=center;verticalAlign=middle;resizable=0;points=[];" vertex="1" connectable="0" parent="aRhJgVoBjpyDwVt26xti-68">
          <mxGeometry x="-0.2748" y="-1" relative="1" as="geometry">
            <mxPoint as="offset" />
          </mxGeometry>
        </mxCell>
        <mxCell id="aRhJgVoBjpyDwVt26xti-70" value="" style="endArrow=open;dashed=1;html=1;dashPattern=1 3;strokeWidth=2;rounded=0;entryX=1;entryY=0.5;entryDx=0;entryDy=0;exitX=0;exitY=0.5;exitDx=0;exitDy=0;endFill=0;" edge="1" parent="1" source="aRhJgVoBjpyDwVt26xti-65" target="aRhJgVoBjpyDwVt26xti-62">
          <mxGeometry width="50" height="50" relative="1" as="geometry">
            <mxPoint x="410" y="785" as="sourcePoint" />
            <mxPoint x="298" y="873" as="targetPoint" />
          </mxGeometry>
        </mxCell>
        <mxCell id="aRhJgVoBjpyDwVt26xti-71" value="extend" style="edgeLabel;html=1;align=center;verticalAlign=middle;resizable=0;points=[];" vertex="1" connectable="0" parent="aRhJgVoBjpyDwVt26xti-70">
          <mxGeometry x="-0.2748" y="-1" relative="1" as="geometry">
            <mxPoint as="offset" />
          </mxGeometry>
        </mxCell>
        <mxCell id="aRhJgVoBjpyDwVt26xti-75" value="Изменить пару" style="ellipse;whiteSpace=wrap;html=1;" vertex="1" parent="1">
          <mxGeometry x="870" y="800" width="140" height="70" as="geometry" />
        </mxCell>
        <mxCell id="aRhJgVoBjpyDwVt26xti-76" value="" style="endArrow=open;dashed=1;html=1;dashPattern=1 3;strokeWidth=2;rounded=0;entryX=1;entryY=1;entryDx=0;entryDy=0;exitX=0;exitY=0.5;exitDx=0;exitDy=0;endFill=0;" edge="1" parent="1" source="aRhJgVoBjpyDwVt26xti-75" target="aRhJgVoBjpyDwVt26xti-65">
          <mxGeometry width="50" height="50" relative="1" as="geometry">
            <mxPoint x="650" y="815" as="sourcePoint" />
            <mxPoint x="540" y="775" as="targetPoint" />
          </mxGeometry>
        </mxCell>
        <mxCell id="aRhJgVoBjpyDwVt26xti-77" value="extend" style="edgeLabel;html=1;align=center;verticalAlign=middle;resizable=0;points=[];" vertex="1" connectable="0" parent="aRhJgVoBjpyDwVt26xti-76">
          <mxGeometry x="-0.2748" y="-1" relative="1" as="geometry">
            <mxPoint as="offset" />
          </mxGeometry>
        </mxCell>
        <mxCell id="aRhJgVoBjpyDwVt26xti-78" value="Изменить сведения" style="ellipse;whiteSpace=wrap;html=1;" vertex="1" parent="1">
          <mxGeometry x="870" y="680" width="140" height="70" as="geometry" />
        </mxCell>
        <mxCell id="aRhJgVoBjpyDwVt26xti-79" value="" style="endArrow=open;dashed=1;html=1;dashPattern=1 3;strokeWidth=2;rounded=0;entryX=1;entryY=0;entryDx=0;entryDy=0;exitX=0;exitY=0.5;exitDx=0;exitDy=0;endFill=0;" edge="1" parent="1" source="aRhJgVoBjpyDwVt26xti-78" target="aRhJgVoBjpyDwVt26xti-65">
          <mxGeometry width="50" height="50" relative="1" as="geometry">
            <mxPoint x="660" y="825" as="sourcePoint" />
            <mxPoint x="550" y="785" as="targetPoint" />
          </mxGeometry>
        </mxCell>
        <mxCell id="aRhJgVoBjpyDwVt26xti-80" value="extend" style="edgeLabel;html=1;align=center;verticalAlign=middle;resizable=0;points=[];" vertex="1" connectable="0" parent="aRhJgVoBjpyDwVt26xti-79">
          <mxGeometry x="-0.2748" y="-1" relative="1" as="geometry">
            <mxPoint as="offset" />
          </mxGeometry>
        </mxCell>
        <mxCell id="aRhJgVoBjpyDwVt26xti-81" value="" style="endArrow=open;dashed=1;html=1;dashPattern=1 3;strokeWidth=2;rounded=0;entryX=1;entryY=0.5;entryDx=0;entryDy=0;exitX=0.039;exitY=0.657;exitDx=0;exitDy=0;endFill=0;exitPerimeter=0;" edge="1" parent="1" source="aRhJgVoBjpyDwVt26xti-62" target="aRhJgVoBjpyDwVt26xti-27">
          <mxGeometry width="50" height="50" relative="1" as="geometry">
            <mxPoint x="480" y="610" as="sourcePoint" />
            <mxPoint x="460" y="730" as="targetPoint" />
          </mxGeometry>
        </mxCell>
        <mxCell id="aRhJgVoBjpyDwVt26xti-82" value="extend" style="edgeLabel;html=1;align=center;verticalAlign=middle;resizable=0;points=[];" vertex="1" connectable="0" parent="aRhJgVoBjpyDwVt26xti-81">
          <mxGeometry x="-0.2748" y="-1" relative="1" as="geometry">
            <mxPoint as="offset" />
          </mxGeometry>
        </mxCell>
        <mxCell id="aRhJgVoBjpyDwVt26xti-83" value="Посмотреть пару сотрудника" style="ellipse;whiteSpace=wrap;html=1;" vertex="1" parent="1">
          <mxGeometry x="320" y="450" width="140" height="70" as="geometry" />
        </mxCell>
        <mxCell id="aRhJgVoBjpyDwVt26xti-84" value="Посмотреть сведения" style="ellipse;whiteSpace=wrap;html=1;" vertex="1" parent="1">
          <mxGeometry x="530" y="440" width="140" height="70" as="geometry" />
        </mxCell>
        <mxCell id="aRhJgVoBjpyDwVt26xti-85" value="" style="endArrow=block;html=1;rounded=0;entryX=0.5;entryY=0;entryDx=0;entryDy=0;exitX=0.5;exitY=1;exitDx=0;exitDy=0;endFill=1;" edge="1" parent="1" source="aRhJgVoBjpyDwVt26xti-84" target="aRhJgVoBjpyDwVt26xti-63">
          <mxGeometry width="50" height="50" relative="1" as="geometry">
            <mxPoint x="400" y="-60" as="sourcePoint" />
            <mxPoint x="201" y="97" as="targetPoint" />
          </mxGeometry>
        </mxCell>
        <mxCell id="aRhJgVoBjpyDwVt26xti-86" value="" style="endArrow=block;html=1;rounded=0;exitX=0.58;exitY=1.011;exitDx=0;exitDy=0;endFill=1;exitPerimeter=0;" edge="1" parent="1" source="aRhJgVoBjpyDwVt26xti-83" target="aRhJgVoBjpyDwVt26xti-63">
          <mxGeometry width="50" height="50" relative="1" as="geometry">
            <mxPoint x="610" y="520" as="sourcePoint" />
            <mxPoint x="480" y="580" as="targetPoint" />
          </mxGeometry>
        </mxCell>
        <mxCell id="aRhJgVoBjpyDwVt26xti-87" value="Создать птицу" style="ellipse;whiteSpace=wrap;html=1;" vertex="1" parent="1">
          <mxGeometry x="440" y="-300" width="140" height="70" as="geometry" />
        </mxCell>
        <mxCell id="aRhJgVoBjpyDwVt26xti-88" value="Создать рептилию" style="ellipse;whiteSpace=wrap;html=1;" vertex="1" parent="1">
          <mxGeometry x="210" y="-300" width="140" height="70" as="geometry" />
        </mxCell>
        <mxCell id="aRhJgVoBjpyDwVt26xti-89" value="" style="endArrow=block;html=1;rounded=0;entryX=0.5;entryY=0;entryDx=0;entryDy=0;exitX=0.5;exitY=1;exitDx=0;exitDy=0;endFill=1;" edge="1" parent="1" source="aRhJgVoBjpyDwVt26xti-87" target="aRhJgVoBjpyDwVt26xti-31">
          <mxGeometry width="50" height="50" relative="1" as="geometry">
            <mxPoint x="400" y="-60" as="sourcePoint" />
            <mxPoint x="201" y="97" as="targetPoint" />
          </mxGeometry>
        </mxCell>
        <mxCell id="aRhJgVoBjpyDwVt26xti-90" value="" style="endArrow=block;html=1;rounded=0;exitX=0.5;exitY=1;exitDx=0;exitDy=0;endFill=1;" edge="1" parent="1" source="aRhJgVoBjpyDwVt26xti-88" target="aRhJgVoBjpyDwVt26xti-31">
          <mxGeometry width="50" height="50" relative="1" as="geometry">
            <mxPoint x="410" y="-50" as="sourcePoint" />
            <mxPoint x="211" y="107" as="targetPoint" />
          </mxGeometry>
        </mxCell>
        <mxCell id="aRhJgVoBjpyDwVt26xti-92" value="Посмотреть список рационов питания" style="ellipse;whiteSpace=wrap;html=1;" vertex="1" parent="1">
          <mxGeometry x="-170" y="280" width="140" height="70" as="geometry" />
        </mxCell>
        <mxCell id="aRhJgVoBjpyDwVt26xti-93" value="" style="endArrow=none;html=1;rounded=0;exitX=1;exitY=0.5;exitDx=0;exitDy=0;" edge="1" parent="1" source="aRhJgVoBjpyDwVt26xti-92">
          <mxGeometry width="50" height="50" relative="1" as="geometry">
            <mxPoint x="165" y="160" as="sourcePoint" />
            <mxPoint x="160" y="300" as="targetPoint" />
          </mxGeometry>
        </mxCell>
        <mxCell id="aRhJgVoBjpyDwVt26xti-94" value="Выбрать рацион питания" style="ellipse;whiteSpace=wrap;html=1;" vertex="1" parent="1">
          <mxGeometry x="-413" y="300" width="140" height="70" as="geometry" />
        </mxCell>
        <mxCell id="aRhJgVoBjpyDwVt26xti-95" value="Посмотреть информацию о рационе" style="ellipse;whiteSpace=wrap;html=1;" vertex="1" parent="1">
          <mxGeometry x="-790" y="410" width="140" height="70" as="geometry" />
        </mxCell>
        <mxCell id="aRhJgVoBjpyDwVt26xti-96" value="Удалить рацион питания" style="ellipse;whiteSpace=wrap;html=1;" vertex="1" parent="1">
          <mxGeometry x="-530" y="460" width="140" height="70" as="geometry" />
        </mxCell>
        <mxCell id="aRhJgVoBjpyDwVt26xti-97" value="Отредактировать информацию о рационе" style="ellipse;whiteSpace=wrap;html=1;" vertex="1" parent="1">
          <mxGeometry x="-770" y="230" width="140" height="70" as="geometry" />
        </mxCell>
        <mxCell id="aRhJgVoBjpyDwVt26xti-98" value="" style="endArrow=open;dashed=1;html=1;dashPattern=1 3;strokeWidth=2;rounded=0;entryX=0.073;entryY=0.783;entryDx=0;entryDy=0;exitX=1;exitY=0.5;exitDx=0;exitDy=0;endFill=0;entryPerimeter=0;" edge="1" parent="1" source="aRhJgVoBjpyDwVt26xti-95" target="aRhJgVoBjpyDwVt26xti-94">
          <mxGeometry width="50" height="50" relative="1" as="geometry">
            <mxPoint x="-500" y="375" as="sourcePoint" />
            <mxPoint x="-612" y="463" as="targetPoint" />
          </mxGeometry>
        </mxCell>
        <mxCell id="aRhJgVoBjpyDwVt26xti-99" value="extend" style="edgeLabel;html=1;align=center;verticalAlign=middle;resizable=0;points=[];" vertex="1" connectable="0" parent="aRhJgVoBjpyDwVt26xti-98">
          <mxGeometry x="-0.2748" y="-1" relative="1" as="geometry">
            <mxPoint as="offset" />
          </mxGeometry>
        </mxCell>
        <mxCell id="aRhJgVoBjpyDwVt26xti-100" value="" style="endArrow=open;dashed=1;html=1;dashPattern=1 3;strokeWidth=2;rounded=0;entryX=0.351;entryY=1.001;entryDx=0;entryDy=0;exitX=0.5;exitY=0;exitDx=0;exitDy=0;endFill=0;entryPerimeter=0;" edge="1" parent="1" source="aRhJgVoBjpyDwVt26xti-96" target="aRhJgVoBjpyDwVt26xti-94">
          <mxGeometry width="50" height="50" relative="1" as="geometry">
            <mxPoint x="-490" y="385" as="sourcePoint" />
            <mxPoint x="-602" y="473" as="targetPoint" />
          </mxGeometry>
        </mxCell>
        <mxCell id="aRhJgVoBjpyDwVt26xti-101" value="extend" style="edgeLabel;html=1;align=center;verticalAlign=middle;resizable=0;points=[];" vertex="1" connectable="0" parent="aRhJgVoBjpyDwVt26xti-100">
          <mxGeometry x="-0.2748" y="-1" relative="1" as="geometry">
            <mxPoint as="offset" />
          </mxGeometry>
        </mxCell>
        <mxCell id="aRhJgVoBjpyDwVt26xti-102" value="" style="endArrow=open;dashed=1;html=1;dashPattern=1 3;strokeWidth=2;rounded=0;entryX=0;entryY=0.5;entryDx=0;entryDy=0;exitX=0.993;exitY=0.639;exitDx=0;exitDy=0;endFill=0;exitPerimeter=0;" edge="1" parent="1" source="aRhJgVoBjpyDwVt26xti-97" target="aRhJgVoBjpyDwVt26xti-94">
          <mxGeometry width="50" height="50" relative="1" as="geometry">
            <mxPoint x="-480" y="395" as="sourcePoint" />
            <mxPoint x="-592" y="483" as="targetPoint" />
          </mxGeometry>
        </mxCell>
        <mxCell id="aRhJgVoBjpyDwVt26xti-103" value="extend" style="edgeLabel;html=1;align=center;verticalAlign=middle;resizable=0;points=[];" vertex="1" connectable="0" parent="aRhJgVoBjpyDwVt26xti-102">
          <mxGeometry x="-0.2748" y="-1" relative="1" as="geometry">
            <mxPoint as="offset" />
          </mxGeometry>
        </mxCell>
        <mxCell id="aRhJgVoBjpyDwVt26xti-104" value="" style="endArrow=open;dashed=1;html=1;dashPattern=1 3;strokeWidth=2;rounded=0;entryX=0;entryY=0.5;entryDx=0;entryDy=0;exitX=0.971;exitY=0.366;exitDx=0;exitDy=0;endFill=0;exitPerimeter=0;" edge="1" parent="1" source="aRhJgVoBjpyDwVt26xti-94" target="aRhJgVoBjpyDwVt26xti-92">
          <mxGeometry width="50" height="50" relative="1" as="geometry">
            <mxPoint x="-621" y="285" as="sourcePoint" />
            <mxPoint x="-403" y="345" as="targetPoint" />
          </mxGeometry>
        </mxCell>
        <mxCell id="aRhJgVoBjpyDwVt26xti-105" value="extend" style="edgeLabel;html=1;align=center;verticalAlign=middle;resizable=0;points=[];" vertex="1" connectable="0" parent="aRhJgVoBjpyDwVt26xti-104">
          <mxGeometry x="-0.2748" y="-1" relative="1" as="geometry">
            <mxPoint as="offset" />
          </mxGeometry>
        </mxCell>
        <mxCell id="aRhJgVoBjpyDwVt26xti-106" value="Назначить тип рациона" style="ellipse;whiteSpace=wrap;html=1;" vertex="1" parent="1">
          <mxGeometry x="-380" y="-310" width="140" height="70" as="geometry" />
        </mxCell>
        <mxCell id="aRhJgVoBjpyDwVt26xti-107" value="" style="endArrow=open;dashed=1;html=1;dashPattern=1 3;strokeWidth=2;rounded=0;entryX=0.5;entryY=1;entryDx=0;entryDy=0;exitX=0.5;exitY=0;exitDx=0;exitDy=0;endFill=0;" edge="1" parent="1" source="aRhJgVoBjpyDwVt26xti-37" target="aRhJgVoBjpyDwVt26xti-106">
          <mxGeometry width="50" height="50" relative="1" as="geometry">
            <mxPoint x="-611" y="295" as="sourcePoint" />
            <mxPoint x="-393" y="355" as="targetPoint" />
          </mxGeometry>
        </mxCell>
        <mxCell id="aRhJgVoBjpyDwVt26xti-109" value="include" style="edgeLabel;html=1;align=center;verticalAlign=middle;resizable=0;points=[];" vertex="1" connectable="0" parent="aRhJgVoBjpyDwVt26xti-107">
          <mxGeometry x="-0.196" y="2" relative="1" as="geometry">
            <mxPoint as="offset" />
          </mxGeometry>
        </mxCell>
        <mxCell id="aRhJgVoBjpyDwVt26xti-113" value="Назначить тип рациона" style="ellipse;whiteSpace=wrap;html=1;" vertex="1" parent="1">
          <mxGeometry x="-800" y="60" width="140" height="70" as="geometry" />
        </mxCell>
        <mxCell id="aRhJgVoBjpyDwVt26xti-114" value="" style="endArrow=open;dashed=1;html=1;dashPattern=1 3;strokeWidth=2;rounded=0;entryX=0.5;entryY=1;entryDx=0;entryDy=0;exitX=0.5;exitY=0;exitDx=0;exitDy=0;endFill=0;" edge="1" parent="1" source="aRhJgVoBjpyDwVt26xti-97" target="aRhJgVoBjpyDwVt26xti-113">
          <mxGeometry width="50" height="50" relative="1" as="geometry">
            <mxPoint x="-710" y="90" as="sourcePoint" />
            <mxPoint x="-833" y="545" as="targetPoint" />
          </mxGeometry>
        </mxCell>
        <mxCell id="aRhJgVoBjpyDwVt26xti-115" value="include" style="edgeLabel;html=1;align=center;verticalAlign=middle;resizable=0;points=[];" vertex="1" connectable="0" parent="aRhJgVoBjpyDwVt26xti-114">
          <mxGeometry x="-0.196" y="2" relative="1" as="geometry">
            <mxPoint as="offset" />
          </mxGeometry>
        </mxCell>
        <mxCell id="aRhJgVoBjpyDwVt26xti-116" value="Посмотреть список зон" style="ellipse;whiteSpace=wrap;html=1;" vertex="1" parent="1">
          <mxGeometry x="-250" y="585" width="140" height="70" as="geometry" />
        </mxCell>
        <mxCell id="aRhJgVoBjpyDwVt26xti-117" value="Выбрать зону" style="ellipse;whiteSpace=wrap;html=1;" vertex="1" parent="1">
          <mxGeometry x="-463" y="670" width="140" height="70" as="geometry" />
        </mxCell>
        <mxCell id="aRhJgVoBjpyDwVt26xti-118" value="Посмотреть информацию о зоне" style="ellipse;whiteSpace=wrap;html=1;" vertex="1" parent="1">
          <mxGeometry x="-840" y="780" width="140" height="70" as="geometry" />
        </mxCell>
        <mxCell id="aRhJgVoBjpyDwVt26xti-119" value="Удалить зону" style="ellipse;whiteSpace=wrap;html=1;" vertex="1" parent="1">
          <mxGeometry x="-580" y="830" width="140" height="70" as="geometry" />
        </mxCell>
        <mxCell id="aRhJgVoBjpyDwVt26xti-120" value="Отредактировать информацию о зоне" style="ellipse;whiteSpace=wrap;html=1;" vertex="1" parent="1">
          <mxGeometry x="-820" y="600" width="140" height="70" as="geometry" />
        </mxCell>
        <mxCell id="aRhJgVoBjpyDwVt26xti-121" value="" style="endArrow=open;dashed=1;html=1;dashPattern=1 3;strokeWidth=2;rounded=0;entryX=0.073;entryY=0.783;entryDx=0;entryDy=0;exitX=1;exitY=0.5;exitDx=0;exitDy=0;endFill=0;entryPerimeter=0;" edge="1" parent="1" source="aRhJgVoBjpyDwVt26xti-118" target="aRhJgVoBjpyDwVt26xti-117">
          <mxGeometry width="50" height="50" relative="1" as="geometry">
            <mxPoint x="-550" y="745" as="sourcePoint" />
            <mxPoint x="-662" y="833" as="targetPoint" />
          </mxGeometry>
        </mxCell>
        <mxCell id="aRhJgVoBjpyDwVt26xti-122" value="extend" style="edgeLabel;html=1;align=center;verticalAlign=middle;resizable=0;points=[];" vertex="1" connectable="0" parent="aRhJgVoBjpyDwVt26xti-121">
          <mxGeometry x="-0.2748" y="-1" relative="1" as="geometry">
            <mxPoint as="offset" />
          </mxGeometry>
        </mxCell>
        <mxCell id="aRhJgVoBjpyDwVt26xti-123" value="" style="endArrow=open;dashed=1;html=1;dashPattern=1 3;strokeWidth=2;rounded=0;entryX=0.351;entryY=1.001;entryDx=0;entryDy=0;exitX=0.5;exitY=0;exitDx=0;exitDy=0;endFill=0;entryPerimeter=0;" edge="1" parent="1" source="aRhJgVoBjpyDwVt26xti-119" target="aRhJgVoBjpyDwVt26xti-117">
          <mxGeometry width="50" height="50" relative="1" as="geometry">
            <mxPoint x="-540" y="755" as="sourcePoint" />
            <mxPoint x="-652" y="843" as="targetPoint" />
          </mxGeometry>
        </mxCell>
        <mxCell id="aRhJgVoBjpyDwVt26xti-124" value="extend" style="edgeLabel;html=1;align=center;verticalAlign=middle;resizable=0;points=[];" vertex="1" connectable="0" parent="aRhJgVoBjpyDwVt26xti-123">
          <mxGeometry x="-0.2748" y="-1" relative="1" as="geometry">
            <mxPoint as="offset" />
          </mxGeometry>
        </mxCell>
        <mxCell id="aRhJgVoBjpyDwVt26xti-125" value="" style="endArrow=open;dashed=1;html=1;dashPattern=1 3;strokeWidth=2;rounded=0;entryX=0;entryY=0.5;entryDx=0;entryDy=0;exitX=0.993;exitY=0.639;exitDx=0;exitDy=0;endFill=0;exitPerimeter=0;" edge="1" parent="1" source="aRhJgVoBjpyDwVt26xti-120" target="aRhJgVoBjpyDwVt26xti-117">
          <mxGeometry width="50" height="50" relative="1" as="geometry">
            <mxPoint x="-530" y="765" as="sourcePoint" />
            <mxPoint x="-642" y="853" as="targetPoint" />
          </mxGeometry>
        </mxCell>
        <mxCell id="aRhJgVoBjpyDwVt26xti-126" value="extend" style="edgeLabel;html=1;align=center;verticalAlign=middle;resizable=0;points=[];" vertex="1" connectable="0" parent="aRhJgVoBjpyDwVt26xti-125">
          <mxGeometry x="-0.2748" y="-1" relative="1" as="geometry">
            <mxPoint as="offset" />
          </mxGeometry>
        </mxCell>
        <mxCell id="aRhJgVoBjpyDwVt26xti-127" value="" style="endArrow=open;dashed=1;html=1;dashPattern=1 3;strokeWidth=2;rounded=0;exitX=1;exitY=0.5;exitDx=0;exitDy=0;endFill=0;entryX=0.055;entryY=0.702;entryDx=0;entryDy=0;entryPerimeter=0;" edge="1" parent="1" source="aRhJgVoBjpyDwVt26xti-117" target="aRhJgVoBjpyDwVt26xti-116">
          <mxGeometry width="50" height="50" relative="1" as="geometry">
            <mxPoint x="-336" y="790" as="sourcePoint" />
            <mxPoint x="-240" y="700" as="targetPoint" />
          </mxGeometry>
        </mxCell>
        <mxCell id="aRhJgVoBjpyDwVt26xti-128" value="extend" style="edgeLabel;html=1;align=center;verticalAlign=middle;resizable=0;points=[];" vertex="1" connectable="0" parent="aRhJgVoBjpyDwVt26xti-127">
          <mxGeometry x="-0.2748" y="-1" relative="1" as="geometry">
            <mxPoint as="offset" />
          </mxGeometry>
        </mxCell>
        <mxCell id="aRhJgVoBjpyDwVt26xti-133" value="" style="endArrow=none;html=1;rounded=0;exitX=0.916;exitY=0.271;exitDx=0;exitDy=0;exitPerimeter=0;" edge="1" parent="1" source="aRhJgVoBjpyDwVt26xti-116">
          <mxGeometry width="50" height="50" relative="1" as="geometry">
            <mxPoint x="-20" y="325" as="sourcePoint" />
            <mxPoint x="160" y="300" as="targetPoint" />
          </mxGeometry>
        </mxCell>
      </root>
    </mxGraphModel>
  </diagram>
</mxfile>
